PathFileType	4	(X/Y/Z)	C:\Git\research_data\Projects\squatting_fais\c3dfiles\036\SJ_pre1\markers_experimental.trc
DataRate	CameraRate	NumFrames	NumMarkers	Units	OrigDataRate	OrigDataStartFrame	OrigNumFrames
200.000000	200.000000	4	62	mm	200.000000	0	2200
Frame#	Time	FHD			LBHD			RBHD			C7			T10			CLAV			LSHO			LUUPA			LMUPA			LDUPA			LLEP			LMEP			LRAD			LUL			LRFIN			RSHO			RUPA1			RMUPA			RDUPA			RLEP			RMEP			RRAD			RUL			RUFIN			LASI			RASI			USACR			LSACR			RSACR			LTHI1			LTHI2			LTHI3			LTHI4			LLFC			LMFC			LTIB1			LTIB2			LTIB3			LTIB4			LLMAL			LMMAL			LHEE			LMT1			LMT2			LMT5			RTHI			RTHI2			RTHI3			RTHI4			RLFC			RMFC			RTIB1			RTIB2			RTIB3			RTIB4			RLMAL			RMMAL			RHEE			RMT1			RMT2			RMT5			*61			
		X1	Y1	Z1	X2	Y2	Z2	X3	Y3	Z3	X4	Y4	Z4	X5	Y5	Z5	X6	Y6	Z6	X7	Y7	Z7	X8	Y8	Z8	X9	Y9	Z9	X10	Y10	Z10	X11	Y11	Z11	X12	Y12	Z12	X13	Y13	Z13	X14	Y14	Z14	X15	Y15	Z15	X16	Y16	Z16	X17	Y17	Z17	X18	Y18	Z18	X19	Y19	Z19	X20	Y20	Z20	X21	Y21	Z21	X22	Y22	Z22	X23	Y23	Z23	X24	Y24	Z24	X25	Y25	Z25	X26	Y26	Z26	X27	Y27	Z27	X28	Y28	Z28	X29	Y29	Z29	X30	Y30	Z30	X31	Y31	Z31	X32	Y32	Z32	X33	Y33	Z33	X34	Y34	Z34	X35	Y35	Z35	X36	Y36	Z36	X37	Y37	Z37	X38	Y38	Z38	X39	Y39	Z39	X40	Y40	Z40	X41	Y41	Z41	X42	Y42	Z42	X43	Y43	Z43	X44	Y44	Z44	X45	Y45	Z45	X46	Y46	Z46	X47	Y47	Z47	X48	Y48	Z48	X49	Y49	Z49	X50	Y50	Z50	X51	Y51	Z51	X52	Y52	Z52	X53	Y53	Z53	X54	Y54	Z54	X55	Y55	Z55	X56	Y56	Z56	X57	Y57	Z57	X58	Y58	Z58	X59	Y59	Z59	X60	Y60	Z60	X61	Y61	Z61	X62	Y62	Z62	

1	0	-160.7200775146485	1530.681884765625	-910.149841308594	-319.9853515625001	1477.635498046875	-987.443298339844	-282.3748779296876	1492.042236328125	-840.3023071289065	-362.6720275878907	1367.970336914063	-940.7949218750002	-376.6393127441407	1059.595825195313	-925.4146118164065	-221.4556121826172	1302.62939453125	-918.2998046875002	-260.2739257812501	1343.325317382813	-1067.374755859375	-310.3245239257813	1222.227905273438	-1200.189819335938	-276.7130737304688	1185.228881835938	-1201.55859375	-321.7005310058594	1164.664428710938	-1237.7529296875	-323.2666015625001	1108.060668945313	-1254.952758789063	-383.1230468750001	1098.554931640625	-1223.428833007813	-216.0155029296876	905.2528076171877	-1191.08544921875	-251.1389160156251	927.1835937500002	-1134.33349609375	-216.0285797119141	879.5994873046877	-1101.047729492188	-279.5377807617188	1347.679931640625	-772.864929199219	-341.7977600097657	1242.866088867188	-656.5960693359376	-303.8315429687501	1212.35205078125	-647.5471191406251	-346.0753173828126	1187.180419921875	-613.9595947265626	-343.7887878417969	1119.628295898438	-585.4018554687501	-397.8736572265626	1089.552856445313	-631.2238769531251	-253.5766296386719	938.695983886719	-693.8950195312501	-216.1160125732422	927.040466308594	-639.7809448242189	-217.8630371093751	898.2672119140627	-731.1993408203126	-184.9834442138672	873.0958251953127	-1040.500732421875	-198.2696380615235	882.505065917969	-771.729431152344	-378.4139404296876	978.0914306640627	-924.0068969726565	-398.515350341797	951.047302246094	-949.3164672851565	-402.3898315429689	956.1030273437502	-894.8068847656252	-279.6199340820313	745.3946533203126	-1120.193115234375	-258.3615417480469	663.5921630859376	-1120.948852539063	-214.7221374511719	662.3276367187501	-1101.385986328125	-293.7135314941407	615.6044311523439	-1120.893676757813	-350.7208557128907	467.1697082519532	-1107.173828125	-344.0655212402344	419.9248046875001	-961.064636230469	-280.6570434570313	284.3267517089844	-1052.945922851563	-303.6405029296876	251.7815246582032	-1131.616333007813	-279.5852661132813	243.7724761962891	-1093.233520507813	-280.2816772460938	160.5567016601563	-1074.733642578125	-329.4387512207032	83.72393035888673	-1138.354370117188	-307.7400512695313	82.74807739257814	-1055.316162109375	-379.3035888671876	55.10727691650392	-1105.235595703125	-189.9740142822266	53.96739578247072	-1072.446166992188	-177.2077941894532	54.36004638671876	-1119.274658203125	-215.5203552246094	34.95855712890626	-1170.496337890625	-343.1059570312501	708.7516479492189	-706.7809448242189	-308.7020874023438	651.3536987304689	-698.7962036132814	-275.8535766601563	653.2645263671876	-697.5753173828126	-338.1339416503907	574.6954345703126	-707.9604492187501	-336.9966125488282	461.6263732910157	-713.0988159179689	-307.6156616210938	440.0531311035157	-857.0989379882815	-292.5434265136719	307.4244079589844	-733.6469116210939	-362.6076660156251	236.2051086425782	-682.8845214843751	-318.2357482910157	232.7904968261719	-697.5529785156251	-305.8771057128907	180.2197875976563	-722.3356933593751	-377.4065551757813	82.82174682617189	-696.5942382812501	-338.2392883300782	85.37000274658205	-770.1815185546877	-416.3070373535157	53.34103012084962	-736.1046142578126	-218.1772766113282	51.84471893310548	-731.1823730468751	-223.955062866211	57.14418029785158	-681.0522460937501	-265.9921569824219	34.97605514526368	-638.5050659179689	nan	nan	nan	
2	0.005	-160.6396942138672	1530.6533203125	-910.185974121094	-320.0047912597657	1477.685668945313	-987.371276855469	-282.3476257324219	1492.057739257813	-840.257507324219	-362.6984252929688	1367.993408203125	-940.6752929687502	-376.6132507324219	1059.591674804688	-925.410095214844	-221.4978027343751	1302.604125976563	-918.2630615234377	-260.3046569824219	1343.31689453125	-1067.335327148438	-310.3716735839844	1222.191528320313	-1200.133178710938	-276.7627563476563	1185.173461914063	-1201.550903320313	-321.7491455078126	1164.656494140625	-1237.687133789063	-323.3209838867188	1108.044799804688	-1254.891357421875	-383.0970458984376	1098.495239257813	-1223.406616210938	-216.0254516601563	905.2686157226565	-1191.07568359375	-251.1071777343751	927.1858520507815	-1134.310302734375	-215.9655761718751	879.582214355469	-1101.025512695313	-279.5210266113282	1347.643920898438	-772.828063964844	-341.7270812988282	1242.850952148438	-656.5686035156251	-303.8302307128907	1212.318603515625	-647.5061035156251	-345.9953002929688	1187.157348632813	-613.9196777343751	-343.6721496582032	1119.60986328125	-585.3488159179689	-397.8504028320314	1089.524536132813	-631.1644287109376	-253.4332275390626	938.6799926757815	-693.8909301757814	-216.1027069091797	927.0298461914065	-639.7568359375001	-217.8129577636719	898.2483520507815	-731.1375732421876	-184.9854888916016	873.071716308594	-1040.473510742188	-198.1271057128907	882.5480957031252	-771.7366943359377	-378.3643493652344	978.0479125976565	-923.9790649414065	-398.5087280273439	951.0767211914065	-949.3303222656252	-402.3893127441407	956.1031494140627	-894.807067871094	-279.5653381347657	745.4188232421876	-1120.157470703125	-258.2865600585938	663.6345825195314	-1120.936645507813	-214.6712036132813	662.3093872070314	-1101.369018554688	-293.6805419921876	615.6218261718751	-1120.890014648438	-350.6485900878907	467.1439514160157	-1107.154541015625	-344.0655822753907	419.924774169922	-961.064636230469	-280.6477661132813	284.3276672363282	-1052.984985351563	-303.5872497558594	251.8171081542969	-1131.631713867188	-279.5942382812501	243.7480773925782	-1093.278076171875	-280.1920776367188	160.5831756591797	-1074.694458007813	-329.3804016113282	83.6602249145508	-1138.380737304688	-307.7455444335938	82.75563812255861	-1055.316772460938	-379.3280944824219	55.11346817016603	-1105.255981445313	-189.9862365722657	53.82054138183595	-1072.407104492188	-176.8265228271485	53.89482879638673	-1119.422119140625	-215.4784088134766	34.94404220581055	-1170.48828125	-343.0336303710938	708.7327270507814	-706.7584838867189	-308.6706848144532	651.3538818359376	-698.7267456054689	-275.8261718750001	653.2602539062501	-697.5522460937501	-338.1027832031251	574.6610717773439	-707.9420166015626	-336.9933166503907	461.6174926757814	-713.1111450195314	-307.5759277343751	440.0198669433595	-857.0689697265627	-292.5466003417969	307.3965148925782	-733.6350708007814	-362.6191406250001	236.1780548095704	-682.8762207031251	-318.2341613769532	232.7875366210938	-697.5755615234376	-305.8837280273438	180.1946258544922	-722.3297119140626	-377.3808593750001	82.83026123046876	-696.5863647460939	-337.1909484863282	84.99497222900392	-769.9296875000002	-416.2721557617189	53.32628631591798	-736.1140747070314	-218.1656951904297	51.8420867919922	-731.1756591796876	-224.0339508056641	57.15987777709962	-681.0825805664064	-266.0484619140626	34.96023559570313	-638.4435424804689	nan	nan	nan	
3	0.01	-160.5931091308594	1530.645141601563	-910.2041625976565	-320.0515747070313	1477.690063476563	-987.3552246093752	-282.3215332031251	1492.049072265625	-840.227233886719	-362.7040405273438	1367.968627929688	-940.6651611328127	-376.5993652343751	1059.576904296875	-925.3775634765627	-221.4506530761719	1302.610107421875	-918.2153320312502	-260.3060913085938	1343.315795898438	-1067.309936523438	-310.3825073242188	1222.1796875	-1200.13134765625	-276.7617492675782	1185.155883789063	-1201.508911132813	-321.8565979003907	1164.618774414063	-1237.657104492188	-323.2796936035157	1108.018188476563	-1254.888305664063	-383.0874023437501	1098.447387695313	-1223.359741210938	-216.0620422363282	905.3029785156252	-1191.04638671875	-251.0940704345704	927.1645507812502	-1134.291625976563	-216.0214385986329	879.5748291015627	-1100.9580078125	-279.4920654296876	1347.629516601563	-772.7862548828127	-341.6070861816407	1242.828002929688	-656.5397338867189	-303.7167053222657	1212.291625976563	-647.4650268554689	-345.9573669433594	1187.155639648438	-613.9148559570314	-343.5974121093751	1119.572631835938	-585.3014526367189	-397.8040771484376	1089.50634765625	-631.1323242187501	-253.4092254638672	938.669128417969	-693.8732910156251	-216.0495910644532	927.0035400390627	-639.7642822265626	-217.8078308105469	898.224304199219	-731.1345214843751	-184.9220886230469	873.0662231445315	-1040.458374023438	-198.1035614013672	882.5374755859377	-771.7014160156252	-378.3655700683594	978.0100097656252	-923.9670410156252	-398.4642639160157	951.0468750000002	-949.2398681640627	-402.325164794922	956.0757446289065	-894.806335449219	-279.5421142578126	745.4149780273439	-1120.115478515625	-258.3042602539063	663.6364135742189	-1120.924438476563	-214.6624450683594	662.3284301757814	-1101.365478515625	-293.7059631347657	615.6279296875001	-1120.89013671875	-350.7218322753907	467.1766357421876	-1107.122436523438	-344.0133361816407	419.9194335937501	-961.0552978515627	-280.6390686035157	284.3801574707032	-1052.980346679688	-303.4852905273438	251.8062438964844	-1131.632934570313	-279.5848693847657	243.7518615722657	-1093.242797851563	-280.1334228515626	160.5982818603516	-1074.693115234375	-329.4522705078126	83.70161437988283	-1138.369262695313	-307.7600097656251	82.74682617187501	-1055.31640625	-379.4518432617188	55.2258987426758	-1105.262939453125	-190.0060424804688	53.96090698242189	-1072.43701171875	-177.1970825195313	54.34668350219728	-1119.236328125	-215.5426330566407	34.97046279907227	-1170.502075195313	-343.0372619628907	708.7227172851564	-706.7285156250001	-308.6604003906251	651.3575439453126	-698.7199096679689	-275.8068542480469	653.2705688476564	-697.5214843750001	-338.0946044921876	574.6876220703126	-707.9481201171876	-336.9955749511719	461.6147460937501	-713.0718383789064	-306.8950195312501	440.1360778808595	-856.8669433593752	-292.4982910156251	307.3928833007813	-733.6262207031251	-362.6365966796876	236.1931457519532	-682.8703002929689	-318.1934509277344	232.7772979736329	-697.5108032226564	-305.7918395996094	180.1690368652344	-722.2601928710939	-377.3970642089844	82.82043457031251	-696.5903930664064	-337.2402954101563	84.97830963134767	-769.928405761719	-416.251922607422	53.30973434448244	-736.0744018554689	-218.0817565917969	51.81037902832033	-731.1469116210939	-224.2183074951172	57.05966186523439	-681.3900146484376	-265.8726806640626	35.02097702026368	-638.2725219726564	nan	nan	nan	
4	0.015	-160.5543212890625	1530.625732421875	-910.1533203125002	-319.6300354003907	1477.6572265625	-987.2846679687502	-282.2919311523438	1492.046752929688	-840.2214965820315	-362.6340332031251	1367.933471679688	-940.593933105469	-376.5957031250001	1059.570190429688	-925.3794555664065	-221.4667663574219	1302.608520507813	-918.2383422851565	-260.3589172363282	1343.287109375	-1067.251220703125	-310.3546752929688	1222.137573242188	-1200.106323242188	-276.7666320800782	1185.136962890625	-1201.467163085938	-321.8014526367188	1164.656616210938	-1237.637939453125	-323.2601623535157	1107.985717773438	-1254.859008789063	-383.1199035644532	1098.4755859375	-1223.33984375	-215.9725952148438	905.230651855469	-1191.091552734375	-251.0409088134766	927.187438964844	-1134.273071289063	-215.9025573730469	879.5704345703127	-1100.992797851563	-279.4390869140626	1347.642700195313	-772.729187011719	-341.5313720703126	1242.840454101563	-656.4956665039064	-303.6333618164063	1212.283935546875	-647.4070434570314	-345.9123229980469	1187.148803710938	-613.8397216796876	-343.5139160156251	1119.554077148438	-585.2875366210939	-397.7373046875001	1089.484252929688	-631.0686035156251	-253.3370513916016	938.6674804687502	-693.8325195312501	-216.0042419433594	926.9898071289065	-639.6953735351564	-217.7891540527344	898.2332153320315	-731.1052246093751	-184.885971069336	873.0976562500002	-1040.462768554688	-198.0889739990235	882.5380859375002	-771.6453247070315	-378.3201599121094	978.0598144531252	-923.950134277344	-398.4366455078126	951.0374755859377	-949.2517700195315	-402.3171386718751	956.0866699218752	-894.7666015625002	-278.8248596191407	744.9053955078126	-1120.239501953125	-258.2540588378907	663.5991210937501	-1120.921997070313	-214.6349029541016	662.2835083007814	-1101.370727539063	-293.6408996582032	615.5952758789064	-1120.824584960938	-350.6886596679688	467.2011718750001	-1107.133056640625	-343.9887390136719	419.939422607422	-961.0360107421877	-280.6166076660157	284.3609619140626	-1052.950439453125	-303.5671997070313	251.8576660156251	-1131.635375976563	-279.5848693847657	243.7519073486329	-1093.242797851563	-280.2507324218751	160.5680694580078	-1074.695922851563	-328.8650817871094	83.32790374755861	-1138.165771484375	-307.7395629882813	82.75196838378908	-1055.319702148438	-379.3029174804688	55.10656356811525	-1105.235717773438	-189.9701232910157	53.92940139770509	-1072.439697265625	-177.1972808837891	54.34801101684572	-1119.236694335938	-215.5317382812501	34.99168777465821	-1170.47900390625	-342.9811401367188	708.7393188476564	-706.6966552734376	-308.6185913085938	651.3650512695314	-698.6563720703126	-275.7720947265626	653.2748413085939	-697.5104370117189	-338.0635986328126	574.6908569335939	-707.9094238281251	-336.9888305664063	461.6056518554689	-713.0746459960939	-306.9393615722657	440.1191406250001	-856.8838500976565	-292.5035095214844	307.4051818847657	-733.6213989257814	-362.5882263183594	236.1976318359376	-682.8242797851564	-318.1814270019532	232.8029479980469	-697.4957885742189	-305.8601684570313	180.215805053711	-722.2614746093751	-377.4260253906251	82.8312225341797	-696.6182250976564	-337.2807006835938	84.99593353271486	-769.919860839844	-416.3034973144532	53.31655502319337	-736.1031494140626	-218.1624145507813	51.84133911132814	-731.1737670898439	-224.0747528076172	57.13654708862306	-681.0912475585939	-266.0061645507813	34.97473907470704	-638.4969482421876	nan	nan	nan	
